<svg width="133" height="21" viewBox="0 0 133 21" fill="none" xmlns="http://www.w3.org/2000/svg">
<path d="M9.15483 5.63778C9.09801 5.06487 8.85417 4.61979 8.4233 4.30256C7.99242 3.98532 7.40767 3.8267 6.66903 3.8267C6.16714 3.8267 5.74337 3.89773 5.39773 4.03977C5.05208 4.17708 4.78693 4.36884 4.60227 4.61506C4.42235 4.86127 4.33239 5.14062 4.33239 5.45312C4.32292 5.71354 4.37737 5.94081 4.49574 6.13494C4.61884 6.32907 4.78693 6.49716 5 6.6392C5.21307 6.77651 5.45928 6.89725 5.73864 7.00142C6.01799 7.10085 6.31629 7.18608 6.63352 7.2571L7.94034 7.5696C8.57481 7.71165 9.1572 7.90104 9.6875 8.13778C10.2178 8.37453 10.6771 8.66572 11.0653 9.01136C11.4536 9.35701 11.7543 9.7642 11.9673 10.233C12.1851 10.7017 12.2964 11.2391 12.3011 11.8452C12.2964 12.7353 12.0691 13.5071 11.6193 14.1605C11.1742 14.8092 10.5303 15.3134 9.6875 15.6733C8.84943 16.0284 7.83854 16.206 6.65483 16.206C5.48059 16.206 4.45786 16.026 3.58665 15.6662C2.72017 15.3063 2.04309 14.7737 1.5554 14.0682C1.07244 13.358 0.819129 12.4796 0.795455 11.4332H3.77131C3.80445 11.9209 3.94413 12.3281 4.19034 12.6548C4.44129 12.9768 4.77509 13.2206 5.19176 13.3864C5.61316 13.5473 6.08902 13.6278 6.61932 13.6278C7.14015 13.6278 7.59233 13.5521 7.97585 13.4006C8.36411 13.2491 8.66477 13.0384 8.87784 12.7685C9.09091 12.4986 9.19744 12.1884 9.19744 11.8381C9.19744 11.5114 9.10038 11.2367 8.90625 11.0142C8.71686 10.7917 8.4375 10.6023 8.06818 10.446C7.7036 10.2898 7.25616 10.1477 6.72585 10.0199L5.14205 9.62216C3.91572 9.32386 2.94744 8.85748 2.23722 8.22301C1.52699 7.58854 1.17424 6.7339 1.17898 5.65909C1.17424 4.77841 1.40862 4.009 1.8821 3.35085C2.36032 2.69271 3.0161 2.17898 3.84943 1.80966C4.68277 1.44034 5.62973 1.25568 6.69034 1.25568C7.76989 1.25568 8.71212 1.44034 9.51705 1.80966C10.3267 2.17898 10.9564 2.69271 11.4062 3.35085C11.8561 4.009 12.0881 4.77131 12.1023 5.63778H9.15483ZM14.3129 16V5.09091H17.3384V16H14.3129ZM15.8327 3.68466C15.3829 3.68466 14.997 3.53551 14.6751 3.23722C14.3578 2.93419 14.1992 2.57197 14.1992 2.15057C14.1992 1.7339 14.3578 1.37642 14.6751 1.07812C14.997 0.775094 15.3829 0.623579 15.8327 0.623579C16.2826 0.623579 16.6661 0.775094 16.9833 1.07812C17.3053 1.37642 17.4663 1.7339 17.4663 2.15057C17.4663 2.57197 17.3053 2.93419 16.9833 3.23722C16.6661 3.53551 16.2826 3.68466 15.8327 3.68466ZM19.7621 16V5.09091H22.6456V7.01562H22.7734C23.0007 6.37642 23.3795 5.87216 23.9098 5.50284C24.4401 5.13352 25.0746 4.94886 25.8132 4.94886C26.5613 4.94886 27.1982 5.13589 27.7237 5.50994C28.2493 5.87926 28.5997 6.38116 28.7749 7.01562H28.8885C29.111 6.39062 29.5135 5.8911 30.0959 5.51705C30.683 5.13826 31.3767 4.94886 32.1768 4.94886C33.1948 4.94886 34.0211 5.2732 34.6555 5.92188C35.2947 6.56581 35.6143 7.47964 35.6143 8.66335V16H32.5959V9.25994C32.5959 8.65388 32.4349 8.19934 32.1129 7.89631C31.791 7.59328 31.3885 7.44176 30.9055 7.44176C30.3563 7.44176 29.9278 7.61695 29.62 7.96733C29.3123 8.31297 29.1584 8.76989 29.1584 9.33807V16H26.2251V9.19602C26.2251 8.66098 26.0713 8.23485 25.7635 7.91761C25.4605 7.60038 25.0604 7.44176 24.5632 7.44176C24.227 7.44176 23.924 7.52699 23.6541 7.69744C23.389 7.86316 23.1783 8.09754 23.022 8.40057C22.8658 8.69886 22.7876 9.04924 22.7876 9.4517V16H19.7621ZM42.9332 16.2131C41.8158 16.2131 40.8546 15.9763 40.0497 15.5028C39.2495 15.0246 38.634 14.3617 38.2031 13.5142C37.777 12.6667 37.5639 11.6913 37.5639 10.5881C37.5639 9.47064 37.7794 8.49053 38.2102 7.64773C38.6458 6.80019 39.2637 6.13968 40.0639 5.66619C40.8641 5.18797 41.8158 4.94886 42.919 4.94886C43.8707 4.94886 44.7041 5.12169 45.419 5.46733C46.134 5.81297 46.6998 6.2983 47.1165 6.9233C47.5331 7.5483 47.7628 8.2822 47.8054 9.125H44.9503C44.8698 8.58049 44.6567 8.14252 44.3111 7.81108C43.9702 7.47491 43.5227 7.30682 42.9688 7.30682C42.5 7.30682 42.0904 7.43466 41.7401 7.69034C41.3944 7.94129 41.1245 8.30824 40.9304 8.79119C40.7363 9.27415 40.6392 9.8589 40.6392 10.5455C40.6392 11.2415 40.7339 11.8333 40.9233 12.321C41.1174 12.8087 41.3897 13.1804 41.7401 13.4361C42.0904 13.6918 42.5 13.8196 42.9688 13.8196C43.3144 13.8196 43.6245 13.7486 43.8991 13.6065C44.1785 13.4645 44.4081 13.2585 44.5881 12.9886C44.7727 12.714 44.8935 12.3849 44.9503 12.0014H47.8054C47.758 12.8348 47.5308 13.5687 47.1236 14.2031C46.7211 14.8329 46.1648 15.3253 45.4545 15.6804C44.7443 16.0355 43.9039 16.2131 42.9332 16.2131ZM52.8533 16.206C52.1573 16.206 51.5371 16.0852 50.9925 15.8438C50.448 15.5975 50.0172 15.2353 49.6999 14.7571C49.3874 14.2741 49.2312 13.6728 49.2312 12.9531C49.2312 12.3471 49.3424 11.8381 49.565 11.4261C49.7875 11.0142 50.0906 10.6828 50.4741 10.4318C50.8576 10.1809 51.2932 9.99148 51.7809 9.86364C52.2733 9.7358 52.7894 9.64583 53.3292 9.59375C53.9637 9.52746 54.475 9.46591 54.8633 9.40909C55.2515 9.34754 55.5333 9.25758 55.7085 9.1392C55.8836 9.02083 55.9712 8.84564 55.9712 8.61364V8.57102C55.9712 8.12121 55.8292 7.7732 55.5451 7.52699C55.2657 7.28078 54.868 7.15767 54.3519 7.15767C53.8074 7.15767 53.3742 7.27841 53.0522 7.51989C52.7302 7.75663 52.5172 8.05492 52.413 8.41477L49.6147 8.1875C49.7567 7.52462 50.0361 6.9517 50.4528 6.46875C50.8694 5.98106 51.4068 5.60701 52.065 5.34659C52.7279 5.08144 53.4949 4.94886 54.3661 4.94886C54.9722 4.94886 55.5522 5.01989 56.1062 5.16193C56.6649 5.30398 57.1597 5.52415 57.5906 5.82244C58.0262 6.12074 58.3694 6.50426 58.6204 6.97301C58.8713 7.43703 58.9968 7.99337 58.9968 8.64205V16H56.1275V14.4872H56.0423C55.8671 14.8281 55.6327 15.1288 55.3391 15.3892C55.0456 15.6449 54.6928 15.8461 54.2809 15.9929C53.869 16.1349 53.3931 16.206 52.8533 16.206ZM53.7198 14.1179C54.1649 14.1179 54.5579 14.0303 54.8988 13.8551C55.2397 13.6752 55.5072 13.4337 55.7013 13.1307C55.8955 12.8277 55.9925 12.4844 55.9925 12.1009V10.9432C55.8978 11.0047 55.7676 11.0616 55.6019 11.1136C55.4409 11.161 55.2586 11.206 55.055 11.2486C54.8514 11.2865 54.6478 11.322 54.4442 11.3551C54.2406 11.3835 54.056 11.4096 53.8903 11.4332C53.5352 11.4853 53.225 11.5682 52.9599 11.6818C52.6947 11.7955 52.4888 11.9493 52.342 12.1435C52.1952 12.3329 52.1218 12.5696 52.1218 12.8537C52.1218 13.2656 52.271 13.5805 52.5692 13.7983C52.8723 14.0114 53.2558 14.1179 53.7198 14.1179ZM61.3441 16V5.09091H64.2773V6.99432H64.391C64.5898 6.31723 64.9237 5.80587 65.3924 5.46023C65.8612 5.10985 66.4009 4.93466 67.0117 4.93466C67.1632 4.93466 67.3266 4.94413 67.5018 4.96307C67.677 4.98201 67.8308 5.00805 67.9634 5.04119V7.72585C67.8214 7.68324 67.6249 7.64536 67.3739 7.61222C67.123 7.57907 66.8933 7.5625 66.685 7.5625C66.2399 7.5625 65.8422 7.65956 65.4918 7.85369C65.1462 8.04309 64.8716 8.30824 64.668 8.64915C64.4691 8.99006 64.3697 9.38305 64.3697 9.82812V16H61.3441ZM75.8771 5.09091V7.36364H69.3075V5.09091H75.8771ZM70.799 2.47727H73.8246V12.6477C73.8246 12.9271 73.8672 13.1449 73.9524 13.3011C74.0376 13.4527 74.156 13.5592 74.3075 13.6207C74.4638 13.6823 74.6437 13.7131 74.8473 13.7131C74.9893 13.7131 75.1314 13.7012 75.2734 13.6776C75.4155 13.6491 75.5244 13.6278 75.6001 13.6136L76.076 15.8651C75.9245 15.9124 75.7114 15.9669 75.4368 16.0284C75.1622 16.0947 74.8284 16.1349 74.4354 16.1491C73.7062 16.1776 73.067 16.0805 72.5178 15.858C71.9732 15.6354 71.5495 15.2898 71.2464 14.821C70.9434 14.3523 70.7943 13.7604 70.799 13.0455V2.47727Z" fill="#010562"/>
<path d="M79.6165 16.1847C79.1477 16.1847 78.7453 16.0189 78.4091 15.6875C78.0777 15.3513 77.9119 14.9489 77.9119 14.4801C77.9119 14.0161 78.0777 13.6184 78.4091 13.2869C78.7453 12.9555 79.1477 12.7898 79.6165 12.7898C80.071 12.7898 80.4688 12.9555 80.8097 13.2869C81.1506 13.6184 81.321 14.0161 81.321 14.4801C81.321 14.7926 81.2405 15.0791 81.0795 15.3395C80.9233 15.5952 80.7173 15.8011 80.4616 15.9574C80.206 16.1089 79.9242 16.1847 79.6165 16.1847ZM91.7525 5.63778C91.6957 5.06487 91.4518 4.61979 91.021 4.30256C90.5901 3.98532 90.0053 3.8267 89.2667 3.8267C88.7648 3.8267 88.341 3.89773 87.9954 4.03977C87.6497 4.17708 87.3846 4.36884 87.1999 4.61506C87.02 4.86127 86.93 5.14062 86.93 5.45312C86.9206 5.71354 86.975 5.94081 87.0934 6.13494C87.2165 6.32907 87.3846 6.49716 87.5977 6.6392C87.8107 6.77651 88.0569 6.89725 88.3363 7.00142C88.6156 7.10085 88.9139 7.18608 89.2312 7.2571L90.538 7.5696C91.1725 7.71165 91.7549 7.90104 92.2852 8.13778C92.8155 8.37453 93.2747 8.66572 93.663 9.01136C94.0513 9.35701 94.3519 9.7642 94.565 10.233C94.7828 10.7017 94.8941 11.2391 94.8988 11.8452C94.8941 12.7353 94.6668 13.5071 94.217 14.1605C93.7719 14.8092 93.128 15.3134 92.2852 15.6733C91.4471 16.0284 90.4362 16.206 89.2525 16.206C88.0782 16.206 87.0555 16.026 86.1843 15.6662C85.3178 15.3063 84.6407 14.7737 84.1531 14.0682C83.6701 13.358 83.4168 12.4796 83.3931 11.4332H86.369C86.4021 11.9209 86.5418 12.3281 86.788 12.6548C87.0389 12.9768 87.3728 13.2206 87.7894 13.3864C88.2108 13.5473 88.6867 13.6278 89.217 13.6278C89.7378 13.6278 90.19 13.5521 90.5735 13.4006C90.9618 13.2491 91.2624 13.0384 91.4755 12.7685C91.6886 12.4986 91.7951 12.1884 91.7951 11.8381C91.7951 11.5114 91.698 11.2367 91.5039 11.0142C91.3145 10.7917 91.0352 10.6023 90.6658 10.446C90.3013 10.2898 89.8538 10.1477 89.3235 10.0199L87.7397 9.62216C86.5134 9.32386 85.5451 8.85748 84.8349 8.22301C84.1246 7.58854 83.7719 6.7339 83.7766 5.65909C83.7719 4.77841 84.0063 4.009 84.4798 3.35085C84.958 2.69271 85.6138 2.17898 86.4471 1.80966C87.2804 1.44034 88.2274 1.25568 89.288 1.25568C90.3675 1.25568 91.3098 1.44034 92.1147 1.80966C92.9244 2.17898 93.5541 2.69271 94.0039 3.35085C94.4537 4.009 94.6857 4.77131 94.6999 5.63778H91.7525ZM99.9361 9.69318V16H96.9105V1.45455H99.8509V7.01562H99.9787C100.225 6.37169 100.623 5.86742 101.172 5.50284C101.721 5.13352 102.41 4.94886 103.239 4.94886C103.996 4.94886 104.657 5.11458 105.22 5.44602C105.788 5.77273 106.229 6.24384 106.541 6.85938C106.858 7.47017 107.015 8.2017 107.01 9.05398V16H103.984V9.59375C103.989 8.9214 103.819 8.3982 103.473 8.02415C103.132 7.65009 102.654 7.46307 102.038 7.46307C101.626 7.46307 101.262 7.55066 100.945 7.72585C100.632 7.90104 100.386 8.15672 100.206 8.4929C100.031 8.82434 99.9408 9.22443 99.9361 9.69318ZM114.32 16.2131C113.217 16.2131 112.263 15.9787 111.458 15.5099C110.658 15.0365 110.04 14.3783 109.604 13.5355C109.168 12.688 108.951 11.7055 108.951 10.5881C108.951 9.46117 109.168 8.47633 109.604 7.63352C110.04 6.78598 110.658 6.12784 111.458 5.65909C112.263 5.18561 113.217 4.94886 114.32 4.94886C115.423 4.94886 116.375 5.18561 117.175 5.65909C117.98 6.12784 118.6 6.78598 119.036 7.63352C119.471 8.47633 119.689 9.46117 119.689 10.5881C119.689 11.7055 119.471 12.688 119.036 13.5355C118.6 14.3783 117.98 15.0365 117.175 15.5099C116.375 15.9787 115.423 16.2131 114.32 16.2131ZM114.334 13.8693C114.836 13.8693 115.255 13.7273 115.591 13.4432C115.927 13.1544 116.181 12.7614 116.351 12.2642C116.526 11.767 116.614 11.2012 116.614 10.5668C116.614 9.93229 116.526 9.36648 116.351 8.86932C116.181 8.37216 115.927 7.97917 115.591 7.69034C115.255 7.40151 114.836 7.2571 114.334 7.2571C113.828 7.2571 113.401 7.40151 113.056 7.69034C112.715 7.97917 112.457 8.37216 112.282 8.86932C112.111 9.36648 112.026 9.93229 112.026 10.5668C112.026 11.2012 112.111 11.767 112.282 12.2642C112.457 12.7614 112.715 13.1544 113.056 13.4432C113.401 13.7273 113.828 13.8693 114.334 13.8693ZM121.657 20.0909V5.09091H124.64V6.9233H124.775C124.907 6.62973 125.099 6.33144 125.35 6.02841C125.605 5.72064 125.937 5.46496 126.344 5.26136C126.756 5.05303 127.267 4.94886 127.878 4.94886C128.674 4.94886 129.408 5.1572 130.08 5.57386C130.752 5.9858 131.29 6.60843 131.692 7.44176C132.095 8.27036 132.296 9.30966 132.296 10.5597C132.296 11.7765 132.099 12.804 131.706 13.642C131.318 14.4754 130.788 15.1075 130.115 15.5384C129.448 15.9645 128.7 16.1776 127.871 16.1776C127.284 16.1776 126.784 16.0805 126.373 15.8864C125.965 15.6922 125.632 15.4484 125.371 15.1548C125.111 14.8565 124.912 14.5559 124.775 14.2528H124.682V20.0909H121.657ZM124.618 10.5455C124.618 11.1941 124.708 11.7599 124.888 12.2429C125.068 12.7259 125.328 13.1023 125.669 13.3722C126.01 13.6373 126.425 13.7699 126.912 13.7699C127.405 13.7699 127.821 13.6349 128.162 13.3651C128.503 13.0904 128.761 12.7116 128.936 12.2287C129.116 11.741 129.206 11.1799 129.206 10.5455C129.206 9.91572 129.119 9.36174 128.944 8.88352C128.768 8.4053 128.51 8.03125 128.169 7.76136C127.828 7.49148 127.409 7.35653 126.912 7.35653C126.42 7.35653 126.003 7.48674 125.662 7.74716C125.326 8.00758 125.068 8.37689 124.888 8.85511C124.708 9.33333 124.618 9.89678 124.618 10.5455Z" fill="black"/>
</svg>
